<svg width="200" height="150" xmlns="http://www.w3.org/2000/svg">
  <!-- Nền -->
  <rect width="200" height="150" fill="#e0f7fa" rx="8" ry="8"/>

  <!-- Nền hiệu ứng màu nước -->
  <g opacity="0.3">
    <ellipse cx="50" cy="40" rx="40" ry="30" fill="#81ecec" />
    <ellipse cx="150" cy="100" rx="35" ry="25" fill="#55efc4" />
    <ellipse cx="120" cy="30" rx="25" ry="20" fill="#74b9ff" />
  </g>
  
  <!-- Minh hoạ phong cách màu nước -->
  <g transform="translate(40, 25)">
    <!-- Đường viền nhân vật màu nước - dùng hình dạng bất quy tắc và cạnh mờ -->
    <ellipse cx="60" cy="40" rx="28" ry="33" fill="#00cec9" opacity="0.2" />
    <ellipse cx="60" cy="40" rx="28" ry="33" fill="none" stroke="#00cec9" stroke-width="1.5" stroke-dasharray="2,1" />
    
    <!-- Đặc điểm khuôn mặt phong cách màu nước - đơn giản và có hiệu ứng màu nước -->
    <ellipse cx="50" cy="32" rx="3" ry="2" fill="#2d3436" opacity="0.7" />
    <ellipse cx="70" cy="32" rx="3" ry="2" fill="#2d3436" opacity="0.7" />
    <path d="M50 50 Q 60 55, 70 50" fill="none" stroke="#2d3436" stroke-width="1.5" stroke-linecap="round" opacity="0.7" />
    
    <!-- Hiệu ứng loang màu phong cách màu nước -->
    <ellipse cx="40" cy="35" rx="10" ry="8" fill="#00cec9" opacity="0.2" />
    <ellipse cx="80" cy="35" rx="10" ry="8" fill="#00cec9" opacity="0.2" />
    <ellipse cx="60" cy="65" rx="15" ry="10" fill="#00cec9" opacity="0.2" />
    
    <!-- Khung hội thoại phong cách màu nước -->
    <path d="M95 25 Q 120 20, 120 35 Q 120 50, 95 45 L 90 55 L 85 45 Q 80 40, 85 30 Z" fill="white" stroke="#00cec9" stroke-width="1" stroke-dasharray="3,1" />
    <text x="100" y="38" font-family="Arial" font-size="8" text-anchor="middle" fill="#2d3436">Màu nước</text>
  </g>

  <!-- Tiêu đề -->
  <text x="100" y="130" font-family="Arial" font-size="13" font-weight="bold" text-anchor="middle" fill="#2d3436">Phong cách màu nước</text>
</svg>